<?xml version="1.0" standalone="no"?>
<!DOCTYPE svg PUBLIC "-//W3C//DTD SVG 20010904//EN" "http://www.w3.org/TR/2001/REC-SVG-20010904/DTD/svg10.dtd">
<svg xmlns="http://www.w3.org/2000/svg" version="1.0" width="1920.000000pt" height="877.000000pt" viewBox="0 0 1920.000000 877.000000" preserveAspectRatio="xMidYMid meet">
<metadata>
Silhouette image created by Creazilla.com with potrace 1.16, written by Peter Selinger 2001-2019
</metadata>
<g transform="translate(0.000000,877.000000) scale(0.100000,-0.100000)" fill="#F44545">
<path d="M12230 8740 c-708 -149 -2846 -676 -3328 -820 -73 -22 -152 -40 -176 -40 -32 0 -54 -8 -83 -29 -22 -16 -132 -68 -243 -116 -878 -376 -1596 -741 -2529 -1288 -829 -485 -1014 -589 -1346 -754 -312 -156 -440 -210 -546 -232 -912 -189 -1975 -505 -2654 -791 -183 -77 -498 -236 -621 -313 -89 -56 -91 -58 -181 -194 -178 -270 -277 -477 -351 -735 -17 -58 -42 -129 -57 -157 -14 -29 -29 -80 -33 -114 -6 -46 -16 -75 -41 -111 -28 -41 -35 -60 -39 -118 -6 -88 13 -198 42 -241 17 -24 28 -69 44 -173 18 -123 28 -157 81 -285 80 -192 105 -298 97 -405 -7 -81 -7 -82 27 -125 41 -54 130 -127 204 -167 l56 -30 2 -83 c2 -109 19 -144 78 -160 87 -23 287 -58 417 -73 132 -15 212 -18 478 -17 l132 1 0 30 c0 30 0 30 58 30 31 0 93 3 138 6 l81 7 27 -86 c156 -503 547 -902 1045 -1067 497 -165 1019 -93 1453 201 130 88 344 303 430 434 110 164 184 335 244 563 2 9 39 12 138 12 l134 0 3 -130 c4 -146 10 -160 59 -140 53 22 83 75 125 220 14 53 19 58 113 126 l97 71 815 12 c3057 44 7514 138 7876 165 l61 5 27 -137 c15 -75 29 -149 32 -164 7 -34 32 -37 38 -5 3 12 10 83 16 157 7 74 13 136 13 136 1 1 52 5 114 9 l112 7 6 -38 c31 -179 82 -339 157 -489 227 -450 640 -769 1136 -876 126 -27 413 -37 545 -19 788 106 1387 753 1425 1540 l7 135 53 3 c59 3 56 9 42 -88 -30 -212 -30 -331 2 -351 49 -32 95 17 138 146 44 135 63 169 107 196 71 44 212 169 276 244 212 247 329 541 357 890 6 72 18 205 26 297 18 189 14 246 -22 285 -17 18 -24 38 -24 64 0 58 -68 178 -180 318 -151 190 -185 267 -218 501 -16 110 -17 126 -4 136 13 9 14 44 9 235 -3 123 -13 271 -21 329 -39 279 -125 549 -206 645 -9 11 -29 54 -45 95 -101 271 -299 613 -527 911 -194 256 -530 610 -781 824 -134 114 -135 108 28 119 123 8 159 19 174 52 15 33 14 64 -1 64 -7 0 -58 5 -113 10 -55 6 -264 15 -465 20 -237 6 -463 18 -645 34 -742 67 -1726 134 -2450 166 -627 27 -944 34 -1680 34 -932 1 -1417 -16 -2165 -74 -248 -20 -714 -64 -795 -77 -85 -13 -19 8 255 81 744 196 2328 580 2903 704 98 21 174 41 171 45 -4 4 0 7 10 7 9 0 14 5 11 10 -9 14 -23 12 -175 -20z"/>
</g>
</svg>
